<svg xmlns="http://www.w3.org/2000/svg" width="271.558" height="72.678" viewBox="0 0 271.558 72.678">
  <defs>
    <style>
      .logo-svg {
        fill: #fff;
      }
    </style>
  </defs>
  <g id="logo" transform="translate(4669.973 4576.969)">
    <path id="Icon" class="logo-svg" d="M-4620.042-4576.969h-36.307a13.625,13.625,0,0,0-13.624,13.625v36.308a13.625,13.625,0,0,0,13.624,13.624h5.6c2.32,0,3.314-.22,4.937,1.437l7.621,7.685,6.744-6.641a8.625,8.625,0,0,1,6.053-2.48h5.356a13.624,13.624,0,0,0,13.624-13.624h0v-36.308a13.624,13.624,0,0,0-13.624-13.625Zm-29.593,36.849,10.1-25.434a1.438,1.438,0,0,1,1.868-.8,1.437,1.437,0,0,1,.8.8l10.1,25.434a1.438,1.438,0,0,1-.8,1.868,1.442,1.442,0,0,1-.857.065l-9.78-2.258-9.78,2.258a1.438,1.438,0,0,1-1.726-1.074A1.441,1.441,0,0,1-4649.635-4540.12Zm30.536,11.742a42.961,42.961,0,0,1-18.952,4.468,42.957,42.957,0,0,1-18.951-4.468,1.438,1.438,0,0,1-.66-1.924l.02-.038.669-1.272a1.439,1.439,0,0,1,1.905-.619,38.688,38.688,0,0,0,17.017,4.011,38.687,38.687,0,0,0,17.016-4.011,1.439,1.439,0,0,1,1.906.619l.669,1.272a1.439,1.439,0,0,1-.6,1.943Z"/>
    <g id="Excursion" transform="translate(-4591.05 -4556.424)">
      <path id="Tracé_1" data-name="Tracé 1" class="logo-svg" d="M-4378.375-4503.858v2.61h-9.315v7.867h7.83v2.61h-7.83v10.306h10.9v2.61h-18.441v-26Z" transform="translate(4395.234 4504.315)"/>
      <path id="Tracé_2" data-name="Tracé 2" class="logo-svg" d="M-4310.149-4503.858l-6.82,11.125,8.287,14.878h-8.382l-4.991-9.145-5.544,9.145h-3.391l7.334-11.887-7.849-14.116h8.363l4.648,8.477,5.029-8.477Z" transform="translate(4349.811 4504.315)"/>
      <path id="Tracé_3" data-name="Tracé 3" class="logo-svg" d="M-4230.643-4489.334l3.219.838q.076.991.077,1.714a7.457,7.457,0,0,1-2.744,6.058,11.182,11.182,0,0,1-7.353,2.268q-11.564,0-11.563-13.012a14.614,14.614,0,0,1,3.372-10.011,11.139,11.139,0,0,1,8.782-3.838q8.439,0,8.439,8.115l-3.238,1.486q.057-1.143.057-1.771,0-5.753-4.61-5.753-4.877,0-4.877,12.211,0,10.5,5.448,10.5a4.682,4.682,0,0,0,3.744-1.79,6.75,6.75,0,0,0,1.5-4.477A18.926,18.926,0,0,0-4230.643-4489.334Z" transform="translate(4291.013 4505.355)"/>
      <path id="Tracé_4" data-name="Tracé 4" class="logo-svg" d="M-4144.775-4503.858v17.45q0,8.972-9.925,8.973-9.886,0-9.887-8.973v-17.45h7.544v17.678q0,3.429.981,4.687t3.629,1.257q5.124,0,5.124-6.172v-17.45Z" transform="translate(4230.843 4504.315)"/>
      <path id="Tracé_5" data-name="Tracé 5" class="logo-svg" d="M-4081.361-4477.854v-26h11.182a11.885,11.885,0,0,1,6.972,1.838,5.733,5.733,0,0,1,2.61,4.924q0,4.725-5.6,6.153a7.606,7.606,0,0,1,3.724,2.343q.847,1.276,1.152,4.953.362,4.382,1.467,5.792h-8.192a11.418,11.418,0,0,1-.781-4.515l-.038-1.543-.038-1.943q0-4.5-3.619-4.5h-1.3v12.5Zm7.544-14.649h1.524q4.286,0,4.286-4.477t-4.286-4.477h-1.524Z" transform="translate(4171.525 4504.315)"/>
      <path id="Tracé_6" data-name="Tracé 6" class="logo-svg" d="M-3981.486-4497.668l-3.505.648a8.47,8.47,0,0,0,.229-1.753q0-4.534-5.505-4.534-4.343,0-4.344,3.125,0,2.342,4.858,4.019,9.373,3.22,9.373,9.525a7.407,7.407,0,0,1-2.629,5.934,10.42,10.42,0,0,1-6.991,2.238q-9.658,0-9.658-7.487a14.587,14.587,0,0,1,.1-1.5l3.638-.8a11.986,11.986,0,0,0-.419,2.877q0,4.838,5.543,4.838,4.438,0,4.438-3.486,0-2.591-5.315-4.553-7.677-2.819-7.677-9.01a7,7,0,0,1,2.563-5.648,10.146,10.146,0,0,1,6.734-2.144Q-3981.486-4505.384-3981.486-4497.668Z" transform="translate(4113.294 4505.403)"/>
      <path id="Tracé_7" data-name="Tracé 7" class="logo-svg" d="M-3913.4-4503.858v26h-7.544v-26Z" transform="translate(4057.19 4504.315)"/>
      <path id="Tracé_8" data-name="Tracé 8" class="logo-svg" d="M-3871.171-4505.45q11.354,0,11.354,13.45t-11.563,13.449q-11.563,0-11.564-13.754Q-3882.944-4505.45-3871.171-4505.45Zm-.209,2.076a2.9,2.9,0,0,0-2.886,2.354q-.753,2.353-.752,9.02t.752,9.02a2.9,2.9,0,0,0,2.886,2.353,2.9,2.9,0,0,0,2.886-2.353q.753-2.353.752-9.02,0-6.648-.752-9.011A2.905,2.905,0,0,0-3871.38-4503.374Z" transform="translate(4030.106 4505.45)"/>
      <path id="Tracé_9" data-name="Tracé 9" class="logo-svg" d="M-3772.2-4503.858v26h-5.772l-10.858-16.459v16.459h-2.534v-26h4.782l11.849,17.773v-17.773Z" transform="translate(3964.832 4504.315)"/>
    </g>
  </g>
</svg>
